<?xml version="1.0" encoding="UTF-8"?> <svg xmlns="http://www.w3.org/2000/svg" id="Capa_1" data-name="Capa 1" viewBox="0 0 49 49"><defs><style>.cls-1{fill:#f26835;}</style></defs><title>icono ubicacion</title><path class="cls-1" d="M25,20.6a2.09,2.09,0,0,0-1.6.7,2.24,2.24,0,0,0-.65,1.55,2.25,2.25,0,1,0,4.5,0,2.24,2.24,0,0,0-.65-1.55A2.09,2.09,0,0,0,25,20.6Z" transform="translate(-0.5 -0.5)"></path><path class="cls-1" d="M25,.5A24.5,24.5,0,1,0,49.5,25,24.5,24.5,0,0,0,25,.5Zm15.55,12a22.1,22.1,0,0,1,2.9,4.95A25.05,25.05,0,0,1,45,22.9H41.9a17.09,17.09,0,0,0-1.25-4.45,20.55,20.55,0,0,0-2.25-3.9ZM22.85,44.9a19.45,19.45,0,0,1-12.7-6.52A19.39,19.39,0,0,1,5.05,25a19.35,19.35,0,0,1,5.1-13.37A19.42,19.42,0,0,1,22.85,5.1v3a16.56,16.56,0,0,0-10.57,5.67A16.52,16.52,0,0,0,8.05,25a16.47,16.47,0,0,0,4.23,11.22A16.53,16.53,0,0,0,22.85,41.9Zm-4.15-16a10.43,10.43,0,0,1-2.05-5.68,8.14,8.14,0,0,1,2.52-6.28,8.49,8.49,0,0,1,11.66,0,8.14,8.14,0,0,1,2.52,6.28,10.43,10.43,0,0,1-2.05,5.68A34.25,34.25,0,0,1,25,35.55,34.25,34.25,0,0,1,18.7,28.88ZM32.6,43.55a20.15,20.15,0,0,1-5.5,1.35v-3a17.15,17.15,0,0,0,4.37-1.18,16.43,16.43,0,0,0,4-2.32l2,2.2A18.54,18.54,0,0,1,32.6,43.55ZM35.5,11.6a22.25,22.25,0,0,0-8.3-3.5v-3a24.3,24.3,0,0,1,5.35,1.45,19.77,19.77,0,0,1,5,2.85Zm7.92,21.12a19.84,19.84,0,0,1-2.87,4.78l-2.15-2a19.16,19.16,0,0,0,2.25-3.87A17.54,17.54,0,0,0,41.9,27.1H45A21.48,21.48,0,0,1,43.42,32.72Z" transform="translate(-0.5 -0.5)"></path></svg> 